<?xml version="1.0" encoding="UTF-8" standalone="no"?>
<!-- Created with Inkscape (http://www.inkscape.org/) -->

<svg
   version="1.1"
   id="svg2"
   width="988.26666"
   height="1063.2133"
   viewBox="0 0 988.26666 1063.2133"
   sodipodi:docname="mountain-view-seeklogo.com.eps"
   xmlns:inkscape="http://www.inkscape.org/namespaces/inkscape"
   xmlns:sodipodi="http://sodipodi.sourceforge.net/DTD/sodipodi-0.dtd"
   xmlns="http://www.w3.org/2000/svg"
   xmlns:svg="http://www.w3.org/2000/svg">
  <defs
     id="defs6" />
  <sodipodi:namedview
     id="namedview4"
     pagecolor="#ffffff"
     bordercolor="#000000"
     borderopacity="0.25"
     inkscape:showpageshadow="2"
     inkscape:pageopacity="0.0"
     inkscape:pagecheckerboard="0"
     inkscape:deskcolor="#d1d1d1" />
  <g
     id="g8"
     inkscape:groupmode="layer"
     inkscape:label="ink_ext_XXXXXX"
     transform="matrix(1.3333333,0,0,-1.3333333,0,1063.2133)">
    <g
       id="g10"
       transform="scale(0.1)">
      <path
         d="m 1700.32,1171.73 c 3.8,-32.17 10.44,-82.2 51.24,-94.71 27.51,-8.05 52.18,-8.05 61.67,-8.05 4.75,0 7.59,-0.9 7.59,-4.46 0,-5.37 -8.53,-8.06 -19.92,-8.06 -20.88,0 -123.35,0.91 -158.46,3.58 -21.82,1.79 -26.56,4.48 -26.56,8.94 0,3.57 1.89,5.36 6.64,6.25 4.74,0.9 5.69,16.09 3.79,32.17 l -45.54,463.76 h -2.84 L 1345.47,1106.5 c -19.93,-39.32 -22.78,-47.36 -31.32,-47.36 -6.64,0 -11.38,8.93 -29.41,41.1 -24.67,43.79 -106.27,198.38 -111.01,207.31 -8.54,16.08 -114.81,230.53 -125.25,254.66 h -3.79 l -37.96,-414.6 c -0.95,-14.3 -0.95,-30.39 -0.95,-45.58 0,-13.4 10.45,-25.01 24.68,-27.7 16.13,-3.57 30.36,-4.46 36.05,-4.46 3.8,0 7.59,-1.8 7.59,-4.47 0,-6.26 -5.69,-8.04 -17.08,-8.04 -35.1,0 -80.645,2.67 -88.239,2.67 -8.535,0 -54.082,-2.67 -79.695,-2.67 -9.496,0 -16.137,1.78 -16.137,8.04 0,2.67 4.742,4.47 9.489,4.47 7.593,0 14.234,0 28.468,2.67 31.313,5.37 34.153,40.21 37.953,74.17 l 68.311,582.6 c 0.95,9.83 4.75,16.08 10.44,16.08 5.69,0 9.49,-3.57 14.23,-13.4 l 290.34,-562.05 278.95,561.16 c 3.8,8.04 7.59,14.29 14.23,14.29 6.65,0 9.5,-7.14 11.39,-24.13 l 63.57,-549.53"
         style="fill:#ae981d;fill-opacity:1;fill-rule:nonzero;stroke:none"
         id="path12" />
      <path
         d="m 2221.45,1078.8 c 80.42,0 246.62,46.46 246.62,306.49 0,214.45 -130.46,329.72 -271.64,329.72 -149.22,0 -260.92,-98.29 -260.92,-293.98 0,-208.2 125.1,-342.23 285.94,-342.23 z m -18.76,666.59 c 201.05,0 351.16,-126.88 351.16,-335.08 0,-200.15 -141.18,-365.46 -356.53,-365.46 -244.83,0 -346.7,190.32 -346.7,351.16 0,144.76 105.44,349.38 352.07,349.38"
         style="fill:#ae981d;fill-opacity:1;fill-rule:nonzero;stroke:none"
         id="path14" />
      <path
         d="m 2716.6,1473.75 c 0,139.39 0,164.41 -1.78,193.01 -1.79,30.38 -8.94,44.68 -38.43,50.93 -7.15,1.79 -22.34,2.68 -30.38,2.68 -3.58,0 -7.15,1.79 -7.15,5.37 0,5.36 4.47,7.14 14.3,7.14 40.21,0 94.72,-2.68 102.76,-2.68 8.04,0 61.65,2.68 88.46,2.68 9.83,0 14.29,-1.78 14.29,-7.14 0,-3.58 -3.57,-5.37 -7.14,-5.37 -6.26,0 -11.62,-0.89 -22.34,-2.68 -24.12,-3.57 -31.28,-19.66 -33.06,-50.93 -1.79,-28.6 -1.79,-53.62 -1.79,-193.01 v -125.1 c 0,-128.67 28.6,-184.08 67.01,-220.7 43.79,-41.11 84,-49.15 134.94,-49.15 54.5,0 108.12,25.91 140.28,64.33 41.11,50.94 51.83,126.89 51.83,218.93 v 111.69 c 0,139.39 0,164.41 -1.79,193.01 -1.78,30.38 -8.93,44.68 -38.42,50.93 -7.15,1.79 -22.34,2.68 -30.38,2.68 -3.58,0 -7.15,1.79 -7.15,5.37 0,5.36 4.47,7.14 14.3,7.14 40.21,0 89.35,-2.68 94.71,-2.68 6.26,0 48.26,2.68 75.06,2.68 9.83,0 14.3,-1.78 14.3,-7.14 0,-3.58 -3.57,-5.37 -7.15,-5.37 -6.25,0 -11.61,-0.89 -22.34,-2.68 -24.12,-5.36 -31.27,-19.66 -33.06,-50.93 -1.79,-28.6 -1.79,-53.62 -1.79,-193.01 v -95.61 c 0,-96.5 -10.72,-203.73 -82.2,-267.17 -64.34,-57.19 -131.36,-66.12 -184.08,-66.12 -30.38,0 -120.63,3.57 -184.07,63.44 -43.79,41.99 -77.74,104.54 -77.74,235 v 130.46"
         style="fill:#ae981d;fill-opacity:1;fill-rule:nonzero;stroke:none"
         id="path16" />
      <path
         d="m 3559.91,1178.88 c 1.84,-73.28 11.04,-96.5 35.88,-103.66 17.47,-4.46 37.7,-5.35 45.98,-5.35 4.6,0 7.36,-1.8 7.36,-5.36 0,-5.37 -5.52,-7.15 -16.56,-7.15 -52.42,0 -89.21,2.67 -97.49,2.67 -8.27,0 -46.9,-2.67 -88.29,-2.67 -9.2,0 -14.72,0.89 -14.72,7.15 0,3.56 2.76,5.36 7.36,5.36 7.36,0 23.91,0.89 37.71,5.35 22.99,6.26 27.59,32.17 27.59,113.48 l 0.92,512.02 c 0,34.84 2.76,44.67 10.12,44.67 7.35,0 22.99,-19.65 32.19,-28.59 13.79,-15.19 150.84,-159.06 292.48,-306.49 91.05,-94.72 191.3,-203.73 220.72,-233.22 l -10.11,453.93 c -0.92,58.08 -7.35,77.73 -35.87,84.88 -16.55,3.58 -37.7,4.47 -45.06,4.47 -6.44,0 -7.36,2.68 -7.36,6.26 0,5.36 7.36,6.25 18.39,6.25 41.4,0 85.54,-2.68 95.66,-2.68 10.11,0 40.46,2.68 78.17,2.68 10.11,0 16.55,-0.89 16.55,-6.25 0,-3.58 -3.67,-6.26 -10.11,-6.26 -4.6,0 -11.04,0 -22.08,-2.68 -30.34,-6.25 -34.03,-25.91 -34.03,-79.53 l -1.83,-523.62 c 0,-58.97 -1.84,-63.44 -8.28,-63.44 -7.35,0 -18.39,9.83 -67.15,57.19 -10.11,8.93 -142.55,140.29 -240.04,242.15 -106.69,111.69 -210.62,224.28 -240.05,256.45 l 11.95,-428.01"
         style="fill:#ae981d;fill-opacity:1;fill-rule:nonzero;stroke:none"
         id="path18" />
      <path
         d="m 4521.28,1316.48 c 0,-85.77 0,-156.36 4.47,-193.89 2.68,-25.92 8.04,-45.57 34.84,-49.15 12.52,-1.79 32.17,-3.57 40.22,-3.57 5.35,0 7.15,-2.69 7.15,-5.36 0,-4.48 -4.47,-7.15 -14.31,-7.15 -49.14,0 -105.43,2.67 -109.9,2.67 -4.47,0 -60.76,-2.67 -87.57,-2.67 -9.83,0 -14.29,1.78 -14.29,7.15 0,2.67 1.78,5.36 7.14,5.36 8.04,0 18.77,1.78 26.81,3.57 17.87,3.58 22.34,23.23 25.91,49.15 4.47,37.53 4.47,108.12 4.47,193.89 v 377.98 l -132.25,-1.79 c -55.39,-0.89 -76.84,-7.15 -91.14,-28.59 -9.83,-15.19 -12.51,-21.44 -15.19,-27.7 -2.68,-7.15 -5.36,-8.94 -8.94,-8.94 -2.67,0 -4.46,2.69 -4.46,8.05 0,8.93 17.87,85.77 19.66,92.92 1.79,5.36 5.35,16.98 8.93,16.98 6.26,0 15.19,-8.94 39.32,-10.72 25.91,-2.68 59.87,-4.47 70.59,-4.47 h 335.08 c 28.6,0 49.15,1.79 63.45,4.47 13.4,1.78 21.44,4.47 25.02,4.47 4.46,0 4.46,-5.37 4.46,-10.73 0,-26.8 -2.68,-88.46 -2.68,-98.28 0,-8.05 -2.68,-11.62 -6.26,-11.62 -4.45,0 -6.25,2.68 -7.14,15.19 l -0.89,9.83 c -2.68,26.8 -24.13,47.35 -109.91,49.14 l -112.59,1.79 v -377.98"
         style="fill:#ae981d;fill-opacity:1;fill-rule:nonzero;stroke:none"
         id="path20" />
      <path
         d="m 5089.35,1353.12 c 4.47,0 4.47,2.68 3.57,6.25 l -84.89,241.26 c -4.47,13.41 -8.93,13.41 -13.4,0 L 4916,1359.37 c -1.79,-4.46 0,-6.25 2.68,-6.25 z m -92.94,357.42 c 10.73,29.49 14.31,34.85 19.66,34.85 5.36,0 8.94,-4.47 19.66,-32.16 13.41,-33.96 153.7,-403 208.2,-538.82 32.17,-79.53 58.08,-93.83 76.84,-99.19 13.41,-4.46 26.82,-5.35 35.75,-5.35 5.36,0 8.93,-0.9 8.93,-5.36 0,-5.37 -8.04,-7.15 -17.86,-7.15 -13.41,0 -78.64,0 -140.3,1.78 -16.97,0.89 -26.8,0.89 -26.8,6.26 0,3.57 2.69,5.36 6.25,6.25 5.37,1.79 10.73,9.83 5.37,24.13 l -83.1,219.81 c -1.79,3.58 -3.58,5.36 -8.05,5.36 h -192.11 c -4.47,0 -7.15,-2.67 -8.94,-7.15 l -53.61,-158.16 c -8.05,-22.33 -12.51,-43.78 -12.51,-59.86 0,-17.87 18.77,-25.91 33.96,-25.91 h 8.93 c 6.25,0 8.94,-1.8 8.94,-5.36 0,-5.37 -5.36,-7.15 -13.41,-7.15 -21.45,0 -59.87,2.67 -69.69,2.67 -9.84,0 -58.98,-2.67 -100.98,-2.67 -11.61,0 -16.98,1.78 -16.98,7.15 0,3.56 3.58,5.36 8.04,5.36 6.26,0 18.77,0.89 25.93,1.78 41.1,5.37 58.97,39.32 75.05,83.99 l 202.83,554.9"
         style="fill:#ae981d;fill-opacity:1;fill-rule:nonzero;stroke:none"
         id="path22" />
      <path
         d="m 5608.72,1316.48 c 0,-85.77 0,-156.36 4.47,-193.89 2.68,-25.92 8.04,-45.57 34.84,-49.15 12.51,-1.79 32.17,-3.57 40.21,-3.57 5.36,0 7.15,-2.69 7.15,-5.36 0,-4.48 -4.47,-7.15 -14.3,-7.15 -49.14,0 -105.43,2.67 -109.9,2.67 -4.47,0 -60.77,-2.67 -87.57,-2.67 -9.82,0 -14.3,1.78 -14.3,7.15 0,2.67 1.79,5.36 7.15,5.36 8.04,0 18.77,1.78 26.8,3.57 17.88,3.58 22.35,23.23 25.92,49.15 4.47,37.53 4.47,108.12 4.47,193.89 v 157.27 c 0,139.39 0,164.41 -1.79,193.01 -1.79,30.38 -10.72,45.57 -30.38,50.04 -9.83,2.68 -21.44,3.57 -27.69,3.57 -3.58,0 -7.16,1.79 -7.16,5.37 0,5.36 4.47,7.14 14.3,7.14 29.48,0 85.78,-2.68 90.25,-2.68 4.47,0 60.76,2.68 87.57,2.68 9.82,0 14.29,-1.78 14.29,-7.14 0,-3.58 -3.58,-5.37 -7.14,-5.37 -6.26,0 -11.62,-0.89 -22.35,-2.68 -24.11,-4.46 -31.27,-19.66 -33.06,-50.93 -1.78,-28.6 -1.78,-53.62 -1.78,-193.01 v -157.27"
         style="fill:#ae981d;fill-opacity:1;fill-rule:nonzero;stroke:none"
         id="path24" />
      <path
         d="m 5911.79,1178.88 c 1.85,-73.28 11.11,-96.5 36.08,-103.66 17.58,-4.46 37.94,-5.35 46.26,-5.35 4.63,0 7.4,-1.8 7.4,-5.36 0,-5.37 -5.54,-7.15 -16.65,-7.15 -52.73,0 -89.75,2.67 -98.07,2.67 -8.32,0 -47.18,-2.67 -88.82,-2.67 -9.25,0 -14.8,0.89 -14.8,7.15 0,3.56 2.78,5.36 7.4,5.36 7.4,0 24.06,0.89 37.93,5.35 23.14,6.26 27.76,32.17 27.76,113.48 l 0.93,512.02 c 0,34.84 2.77,44.67 10.17,44.67 7.4,0 23.13,-19.65 32.38,-28.59 13.88,-15.19 151.74,-159.06 294.22,-306.49 91.59,-94.72 192.44,-203.73 222.04,-233.22 l -10.17,453.93 c -0.93,58.08 -7.41,77.73 -36.09,84.88 -16.65,3.58 -37.93,4.47 -45.32,4.47 -6.48,0 -7.42,2.68 -7.42,6.26 0,5.36 7.42,6.25 18.51,6.25 41.64,0 86.04,-2.68 96.22,-2.68 10.18,0 40.71,2.68 78.65,2.68 10.17,0 16.64,-0.89 16.64,-6.25 0,-3.58 -3.69,-6.26 -10.17,-6.26 -4.63,0 -11.1,0 -22.21,-2.68 -30.52,-6.25 -34.23,-25.91 -34.23,-79.53 l -1.85,-523.62 c 0,-58.97 -1.84,-63.44 -8.32,-63.44 -7.4,0 -18.51,9.83 -67.55,57.19 -10.17,8.93 -143.4,140.29 -241.47,242.15 -107.33,111.69 -211.86,224.28 -241.48,256.45 l 12.03,-428.01"
         style="fill:#ae981d;fill-opacity:1;fill-rule:nonzero;stroke:none"
         id="path26" />
      <path
         d="m 2722.15,121.52 c 51.82,119.742 171.56,431.589 191.22,495.929 4.46,13.403 8.04,25.91 8.04,33.949 0,7.141 -2.68,16.082 -11.62,20.551 -10.72,3.582 -24.12,3.582 -33.95,3.582 -5.36,0 -9.83,0.879 -9.83,5.36 0,5.359 5.36,7.148 19.66,7.148 35.74,0 76.84,-2.687 87.56,-2.687 5.37,0 43.79,2.687 69.7,2.687 9.83,0 15.19,-1.789 15.19,-6.258 0,-4.472 -3.57,-6.25 -10.72,-6.25 -6.25,0 -25.91,0 -42.89,-10.73 -11.62,-8.039 -25.02,-23.231 -49.15,-84 -9.83,-25.02 -54.5,-132.242 -100.08,-242.141 C 2800.78,208.191 2760.57,111.691 2740.02,67.8984 2715,14.3008 2711.42,0 2702.49,0 2691.77,0 2687.3,12.5117 2670.32,55.3906 L 2451.4,603.148 c -19.66,50.032 -33.06,59.872 -64.34,68.801 -13.4,3.582 -28.59,3.582 -33.95,3.582 -5.36,0 -7.15,2.668 -7.15,6.25 0,5.36 8.94,6.258 23.23,6.258 42.9,0 93.83,-2.687 104.55,-2.687 8.93,0 49.14,2.687 83.1,2.687 16.08,0 24.12,-1.789 24.12,-6.258 0,-4.472 -2.68,-6.25 -8.93,-6.25 -9.83,0 -25.92,-0.902 -33.96,-4.48 -9.83,-4.461 -11.61,-11.61 -11.61,-17.871 0,-11.61 10.72,-39.309 24.12,-74.16 l 171.57,-457.5"
         style="fill:#ae981d;fill-opacity:1;fill-rule:nonzero;stroke:none"
         id="path28" />
      <path
         d="m 3275.64,271.629 c 0,-85.77 0,-156.359 4.46,-193.8907 2.68,-25.918 8.05,-45.5664 34.85,-49.1485 12.51,-1.7812 32.17,-3.5703 40.21,-3.5703 5.36,0 7.15,-2.6914 7.15,-5.3593 0,-4.4805 -4.47,-7.1485 -14.3,-7.1485 -49.14,0 -105.44,2.668 -109.9,2.668 -4.47,0 -60.76,-2.668 -87.57,-2.668 -9.83,0 -14.3,1.7891 -14.3,7.1485 0,2.6679 1.79,5.3593 7.15,5.3593 8.04,0 18.76,1.7891 26.81,3.5703 17.87,3.5821 22.34,23.2305 25.91,49.1485 4.47,37.5317 4.47,108.1207 4.47,193.8907 v 157.269 c 0,139.391 0,164.411 -1.79,193.012 -1.79,30.379 -10.72,45.57 -30.38,50.039 -9.83,2.68 -21.45,3.582 -27.7,3.582 -3.57,0 -7.15,1.778 -7.15,5.36 0,5.359 4.47,7.148 14.3,7.148 29.49,0 85.78,-2.687 90.25,-2.687 4.46,0 60.76,2.687 87.57,2.687 9.82,0 14.29,-1.789 14.29,-7.148 0,-3.582 -3.57,-5.36 -7.15,-5.36 -6.25,0 -11.61,-0.902 -22.34,-2.691 -24.12,-4.461 -31.27,-19.66 -33.06,-50.93 -1.78,-28.601 -1.78,-53.621 -1.78,-193.012 V 271.629"
         style="fill:#ae981d;fill-opacity:1;fill-rule:nonzero;stroke:none"
         id="path30" />
      <path
         d="m 3572.89,428.898 c 0,139.391 0,164.411 -1.98,193.012 -1.99,30.379 -9.94,44.68 -42.73,50.93 -7.95,1.789 -24.84,2.691 -33.78,2.691 -3.98,0 -7.95,1.778 -7.95,5.36 0,5.359 4.96,7.148 15.89,7.148 22.86,0 49.69,0 71.55,-0.898 l 40.74,-1.789 c 6.95,0 204.7,0 227.55,0.898 18.89,0.891 34.78,2.668 42.73,4.461 4.97,0.898 8.94,4.469 13.91,4.469 2.99,0 3.98,-3.571 3.98,-8.039 0,-6.25 -4.97,-16.981 -7.94,-42 -1.01,-8.93 -2.99,-48.25 -4.98,-58.969 -0.99,-4.473 -2.98,-9.832 -6.95,-9.832 -5.97,0 -7.95,4.461 -7.95,11.609 0,6.262 -0.99,21.449 -5.96,32.172 -6.96,14.301 -16.89,25.02 -70.56,30.379 -16.89,1.789 -125.21,2.68 -136.13,2.68 -3.98,0 -5.97,-2.68 -5.97,-8.93 V 397.629 c 0,-6.258 1,-8.93 5.97,-8.93 12.92,0 135.14,0 157.99,1.781 23.85,1.782 37.76,3.579 46.71,12.512 6.96,7.149 10.93,11.617 14.91,11.617 2.97,0 4.96,-1.789 4.96,-7.148 0,-5.359 -4.96,-20.551 -7.95,-50.039 -1.99,-17.883 -3.97,-50.934 -3.97,-57.192 0,-7.152 0,-16.98 -6.96,-16.98 -4.97,0 -6.95,3.578 -6.95,8.039 0,8.941 0,17.871 -3.98,29.492 -3.97,12.508 -12.92,27.699 -51.67,31.27 -26.83,2.687 -125.21,4.48 -142.1,4.48 -4.97,0 -6.96,-2.691 -6.96,-6.261 v -78.641 c 0,-30.367 -0.99,-134.027 0,-152.789 2.99,-61.6486 17.89,-73.2697 115.27,-73.2697 25.84,0 69.56,0 95.4,9.8203 25.83,9.8399 37.76,27.711 44.71,64.3394 1.99,9.829 3.98,13.411 8.94,13.411 5.97,0 5.97,-7.153 5.97,-13.411 0,-7.148 -7.95,-67.9097 -12.92,-86.6714 -6.96,-23.23829 -14.91,-23.23829 -53.66,-23.23829 -74.53,0 -129.18,1.78909 -167.93,2.69139 -38.75,1.7891 -62.61,2.668 -77.51,2.668 -1.99,0 -18.88,0 -39.75,-0.8789 -19.87,0 -42.73,-1.7891 -57.63,-1.7891 -10.93,0 -15.9,1.7891 -15.9,7.1485 0,2.6679 1.99,5.3593 7.95,5.3593 8.94,0 20.87,1.7891 29.81,3.5703 19.87,3.5821 24.84,23.2305 28.82,49.1485 4.96,37.5317 4.96,108.1207 4.96,193.8907 v 157.269"
         style="fill:#ae981d;fill-opacity:1;fill-rule:nonzero;stroke:none"
         id="path32" />
      <path
         d="m 4742.75,135.809 h 3.64 c 24.54,82.211 108.15,341.351 139.95,455.722 9.09,33.059 10,45.571 10,57.188 0,16.082 -10,26.812 -51.8,26.812 -4.55,0 -8.18,2.668 -8.18,6.25 0,4.469 4.54,6.258 15.45,6.258 46.35,0 84.51,-2.687 92.69,-2.687 6.37,0 45.44,2.687 73.62,2.687 8.18,0 12.73,-1.789 12.73,-5.371 0,-4.469 -2.73,-7.137 -8.18,-7.137 -3.64,0 -20.91,-0.902 -30.9,-4.48 -27.27,-9.821 -41.81,-47.352 -59.07,-96.5 C 4892.7,461.07 4800.91,176.91 4765.48,76.8398 4741.84,10.7188 4737.3,0 4727.3,0 c -9.09,0 -14.53,11.6094 -27.26,46.4609 L 4521.91,544.172 h -1.82 C 4487.38,458.391 4362.86,130.449 4330.15,47.3516 4315.61,9.82031 4311.06,0 4300.16,0 c -9.09,0 -13.63,9.82031 -31.8,70.5898 L 4106.59,600.461 c -14.54,47.371 -26.36,60.769 -49.99,69.699 -11.82,4.469 -34.53,5.371 -40.9,5.371 -4.54,0 -8.18,0.879 -8.18,6.25 0,4.469 5.46,6.258 14.55,6.258 47.25,0 97.24,-2.687 107.23,-2.687 8.19,0 48.17,2.687 93.61,2.687 12.73,0 16.36,-2.687 16.36,-6.258 0,-5.371 -4.54,-6.25 -9.09,-6.25 -7.27,0 -24.54,0 -35.45,-5.371 -5.44,-2.68 -11.8,-9.82 -11.8,-21.441 0,-11.617 8.18,-42.887 17.26,-82.207 13.63,-57.192 108.15,-385.121 121.78,-432.481 h 1.82 l 192.67,510.219 c 13.62,36.641 17.27,41.102 22.72,41.102 6.36,0 11.82,-11.61 22.72,-41.993 l 180.85,-507.55"
         style="fill:#ae981d;fill-opacity:1;fill-rule:nonzero;stroke:none"
         id="path34" />
      <path
         d="m 5254.06,4313.78 c 430.97,208.99 547.83,494.45 562.23,804.85 -79.24,-212.59 -235.05,-375.52 -454.92,-496.91 -155.96,-96.48 -416.68,-167.57 -709.2,-230.95 -377.14,-99.97 -671.71,-294.25 -795.51,-683.54 106.04,440.39 365.18,666.99 692.87,797.85 778.2,447.51 783.61,869.24 692.87,1287.76 -14.17,-317.66 -135.73,-550.97 -349.94,-711.54 -280.93,-183.75 -536.78,-358.67 -695.2,-499.24 -159.36,-127.95 -279.72,-316.78 -360.82,-566.89 v 251.18 c 43.15,225.38 158.83,439.02 309.5,646.98 291.16,283.82 525.46,575.91 648.54,884.17 224.12,590.55 71.68,954.19 -142.31,1280.76 53.68,-208.09 75.78,-410.75 44.33,-604.22 -61.66,-289.7 -207.66,-575.94 -443.25,-858.5 -165.51,-199.46 -295.7,-420.35 -390.76,-662.54 1.97,155.1 12.74,313.05 31.5,473.57 259.83,1357.53 136.62,2109.41 -185.05,2547.52 -321.66,-438.11 -444.88,-1189.99 -185.04,-2547.52 18.76,-160.52 29.52,-318.47 31.5,-473.57 -95.06,242.19 -225.25,463.08 -390.76,662.54 -235.59,282.56 -381.59,568.8 -443.25,858.5 -31.45,193.47 -9.35,396.13 44.32,604.22 -213.98,-326.57 -366.42,-690.21 -142.31,-1280.76 123.09,-308.26 357.39,-600.35 648.55,-884.17 150.67,-207.96 266.35,-421.6 309.5,-646.98 v -251.18 c -81.1,250.11 -201.47,438.94 -360.82,566.89 -158.42,140.57 -414.28,315.49 -695.21,499.24 -214.2,160.57 -335.77,393.88 -349.93,711.54 -90.75,-418.52 -85.33,-840.25 692.87,-1287.76 327.69,-130.86 586.82,-357.46 692.87,-797.85 -123.8,389.29 -418.37,583.57 -795.52,683.54 -292.52,63.38 -553.24,134.47 -709.2,230.95 -219.86,121.39 -375.68,284.32 -454.91,496.91 14.4,-310.4 131.26,-595.86 562.22,-804.85 -321.88,-291.04 -480.14,-612.78 -336.87,-991.11 63.11,-166.64 177.19,-310.36 327.06,-406.73 272.65,-175.32 531.27,-117.33 777.34,149.74 173.58,247.8 191.56,469.81 34.17,662.77 -199.48,244.56 -592.39,191.72 -704.97,-103.13 -56.56,-148.17 -25.38,-325.57 173.89,-461.65 -118.05,221.48 -133.08,389.18 -16.26,488.03 80.68,68.28 195.64,77.04 289.93,29.29 194.82,-98.65 259.5,-355.8 78.6,-570.98 -225.12,-283.19 -530.96,-248.99 -753.52,11.66 -209.97,263.62 -67.66,839.85 298.6,963.49 351.17,129.88 709.47,51.48 1080.13,-387.26 153.04,-218.45 256.43,-454.06 297.02,-713.87 40.59,259.81 143.99,495.42 297.02,713.87 370.67,438.74 728.97,517.14 1080.14,387.26 366.26,-123.64 508.56,-699.87 298.6,-963.49 -222.56,-260.65 -528.4,-294.85 -753.52,-11.66 -180.91,215.18 -116.22,472.33 78.6,570.98 94.29,47.75 209.24,38.99 289.93,-29.29 116.81,-98.85 101.79,-266.55 -16.27,-488.03 199.28,136.08 230.46,313.48 173.89,461.65 -112.57,294.85 -505.48,347.69 -704.97,103.13 -157.39,-192.96 -139.4,-414.97 34.18,-662.77 246.06,-267.07 504.69,-325.06 777.34,-149.74 149.87,96.37 263.95,240.09 327.05,406.73 143.28,378.33 -14.99,700.07 -336.87,991.11"
         style="fill:#ae981d;fill-opacity:1;fill-rule:nonzero;stroke:none"
         id="path36" />
      <path
         d="m 4077.51,2326.94 -88.65,-28 h -24.11 c 0,24.89 -209.96,24.89 -209.96,0 h -11.86 c -6.23,15.95 -20.17,18.74 -36.94,16.72 -16.76,2.02 -30.7,-0.77 -36.94,-16.72 h -11.85 c 0,24.89 -209.96,24.89 -209.96,0 h -24.11 l -88.65,28 L 0,2297 l 3334.48,-29.94 88.65,27.99 h 24.11 c 0,-24.88 209.96,-24.88 209.96,0 h 11.85 c 6.24,-15.95 20.18,-18.74 36.94,-16.72 16.77,-2.02 30.71,0.77 36.94,16.72 h 11.86 c 0,-24.88 209.96,-24.88 209.96,0 h 24.11 l 88.65,-27.99 3334.48,29.94 -3334.48,29.94"
         style="fill:#ae981d;fill-opacity:1;fill-rule:nonzero;stroke:none"
         id="path38" />
    </g>
  </g>
</svg>
